<svg xmlns="http://www.w3.org/2000/svg" viewBox="0 0 43.033 86.064">
  <defs>
    <style>
      .cls-1 {
        fill: #f5f5f5;
      }

      .cls-2 {
        fill: #e31c9e;
      }
    </style>
  </defs>
  <g id="hamburger_open_btn" transform="translate(2.852 -201)">
    <g id="그룹_751" data-name="그룹 751">
      <g id="그룹_718" data-name="그룹 718" transform="translate(-353.851 41.637)">
        <path id="빼기_5" data-name="빼기 5" class="cls-1" d="M0,86.064H0V0A42.751,42.751,0,0,1,16.748,3.381a43.205,43.205,0,0,1,7.313,3.968A43.314,43.314,0,0,1,30.428,12.6a43.265,43.265,0,0,1,5.255,6.368,43.139,43.139,0,0,1,3.967,7.309,42.766,42.766,0,0,1,3.383,16.752,42.759,42.759,0,0,1-3.383,16.75,42.992,42.992,0,0,1-3.967,7.31,43.256,43.256,0,0,1-5.255,6.367,43.322,43.322,0,0,1-6.367,5.256,43.2,43.2,0,0,1-7.313,3.967A42.749,42.749,0,0,1,0,86.064Z" transform="translate(351.001 159.363)"/>
        <path id="빼기_4" data-name="빼기 4" class="cls-2" d="M0,86.064H0V57.029H14.575a2,2,0,0,0,2-2v-.782a2,2,0,0,0-2-2H0V45.554H14.575a2,2,0,0,0,2-2v-.781a2,2,0,0,0-2-2H0V34.079H14.575a2,2,0,0,0,2-2V31.3a2,2,0,0,0-2-2H0V0A42.771,42.771,0,0,1,16.748,3.38a43.25,43.25,0,0,1,7.313,3.968A43.372,43.372,0,0,1,30.428,12.6a43.271,43.271,0,0,1,5.254,6.368,43.078,43.078,0,0,1,3.967,7.309,42.767,42.767,0,0,1,3.383,16.752,42.756,42.756,0,0,1-3.383,16.75,42.953,42.953,0,0,1-3.967,7.311,43.3,43.3,0,0,1-5.254,6.367,43.315,43.315,0,0,1-6.368,5.256,43.24,43.24,0,0,1-7.312,3.967A42.752,42.752,0,0,1,0,86.064Z" transform="translate(351.001 159.363)"/>
      </g>
    </g>
  </g>
</svg>
