<svg xmlns="http://www.w3.org/2000/svg" viewBox="0 0 27.771 25.272">
  <defs>
    <style>
      .cls-1 {
        fill: #a5a5a5;
      }
    </style>
  </defs>
  <path id="like_normal_icon" class="cls-1" d="M184.6,115.927a.882.882,0,0,0,1.6.009,6.425,6.425,0,0,1,5.6-3.755c3.732-.237,7.1,2.9,7.427,6.918a13.485,13.485,0,0,1-2.185,8.422,28.773,28.773,0,0,1-10.827,9.713,1.9,1.9,0,0,1-1.669,0,29.326,29.326,0,0,1-10.325-8.927,13.635,13.635,0,0,1-2.628-9.574,7.632,7.632,0,0,1,5.322-6.383,6.772,6.772,0,0,1,7.4,3.019C184.415,115.557,184.508,115.741,184.6,115.927Z" transform="translate(-171.498 -112.154)"/>
</svg>
