<svg id="레이어_1" data-name="레이어 1" xmlns="http://www.w3.org/2000/svg" viewBox="0 0 227.99 113.8"><defs><style>.cls-1{fill:#e31c9e;}</style></defs><title>short logo</title><path class="cls-1" d="M249.79,464.57h33c-.08-1.21-.13-2.43-.13-3.66,0-22.82,14.31-41.31,31.95-41.3s31.9,18.5,31.91,41.3c0,1.23,0,2.45-.13,3.66h32c1.19-35-17.34-59.88-17.34-59.88-47.1-61.62-95.48,0-95.48,0-16.89-21.53-15.9-13.58-15.9-13.58v55A143.74,143.74,0,0,0,249.79,464.57Z" transform="translate(-249.41 -377.13)"/><path class="cls-1" d="M379.16,466a53.69,53.69,0,0,1-.36-6.17v0c0-22.82,14.31-41.31,31.95-41.3s31.9,18.5,31.91,41.3a53.68,53.68,0,0,1-.36,6.22h32.77c1.49-20-2.9-43.3-20.89-66.34,0,0-40.69-50.69-86.77,0,0,0-22.9,27.39-20.65,66.29Z" transform="translate(-249.41 -377.13)"/><rect class="cls-1" x="1.57" y="97.75" width="226.42" height="16.05"/></svg>